<?xml version="1.0" standalone="no"?><!DOCTYPE svg PUBLIC "-//W3C//DTD SVG 1.1//EN" "http://www.w3.org/Graphics/SVG/1.1/DTD/svg11.dtd"><svg t="1748170336678" class="icon" viewBox="0 0 1101 1024" version="1.1" xmlns="http://www.w3.org/2000/svg" p-id="12427" xmlns:xlink="http://www.w3.org/1999/xlink" width="275.25" height="256"><path d="M561.480366 432.245293m-398.205487 0a398.205487 398.205487 0 1 0 796.410974 0 398.205487 398.205487 0 1 0-796.410974 0Z" fill="#F0F0FF" p-id="12428"></path><path d="M229.66326 433.433029c0-185.807423 150.644432-336.426036 336.434642-336.426036 161.592254 0 296.529317 113.923615 328.942442 265.833244-23.444863-175.048951-173.38354-310.041958-354.85745-310.041958-197.775148 0-358.097902 160.309844-358.097902 358.076385 0 197.792361 160.327058 358.110812 358.097902 358.110812 0.783217 0 1.557827-0.02582 2.315223-0.02582-174.773534-12.12695-312.834857-157.66326-312.834857-335.526627z" fill="#F7F7FF" p-id="12429"></path><path d="M302.115116 430.2227c0 143.031737 116.359333 259.360947 259.356643 259.360947s259.369554-116.36794 259.369554-259.360947c0-143.018827-116.36794-259.348037-259.369554-259.348036-143.014524 0-259.356643 116.329209-259.356643 259.348036z" fill="#ABD2FF" p-id="12430"></path><path d="M561.471759 706.797203c-152.503497 0-276.570199-124.071006-276.570199-276.574503 0-152.499193 124.066703-276.561592 276.570199-276.561592s276.583109 124.066703 276.583109 276.561592c-0.004303 152.503497-124.079613 276.574502-276.583109 276.574503z m0-518.708984c-133.516945 0-242.143088 108.62184-242.143088 242.134481 0 133.521248 108.626143 242.147391 242.143088 242.147391 133.521248 0 242.155998-108.626143 242.155998-242.147391-0.004303-133.512641-108.63475-242.134481-242.155998-242.134481z" fill="#6E6E96" p-id="12431"></path><path d="M561.906401 342.128026c48.464766 0 87.7461 39.285637 87.7461 87.737493 0 48.451856-39.281334 87.77192-87.7461 87.77192-48.477676 0-87.75901-39.320065-87.75901-87.77192 0.004303-48.460463 39.289941-87.737493 87.75901-87.737493z" fill="#A1A1C7" p-id="12432"></path><path d="M561.906401 534.850995c-57.880581 0-104.972566-47.096288-104.972566-104.985476 0-57.871974 47.087682-104.951049 104.972566-104.951049 57.871974 0 104.959656 47.079075 104.959656 104.951049 0 57.889188-47.083378 104.985476-104.959656 104.985476z m0-175.509414c-38.898332 0-70.545455 31.638515-70.545454 70.523938 0 38.906939 31.647122 70.558365 70.545454 70.558365 38.889726 0 70.532544-31.651425 70.532545-70.558365 0-38.885422-31.638515-70.523938-70.532545-70.523938z" fill="#6E6E96" p-id="12433"></path><path d="M560.29263 29.16837c-219.924691 0-398.205487 178.2851-398.205486 398.201184s178.280796 398.205487 398.205486 398.205486c219.911781 0 398.179666-178.2851 398.179667-398.205486 0.008607-219.928994-178.263583-398.201183-398.179667-398.201184z m-13.396449 750.898333c-196.996235 0-356.694997-159.711673-356.694998-356.729425 0-197.000538 159.698763-356.703604 356.694998-356.703604 197.026358 0 356.729424 159.70737 356.729424 356.703604 0 197.030662-159.703066 356.729424-356.729424 356.729425z" fill="#6E6E96" opacity=".15" p-id="12434"></path><path d="M557.090909 166.803658c-145.467456 0-263.784831 118.317375-263.78483 263.763313 0 145.463152 118.317375 263.780527 263.78483 263.780528 145.424422 0 263.741797-118.351802 263.741797-263.784831 0-145.445939-118.325982-263.75901-263.741797-263.75901z m14.480904 493.374933c-118.592792 0-215.091985-96.503497-215.091985-215.117806 0-118.588488 96.503497-215.087682 215.091985-215.087681 118.597095 0 215.079075 96.49489 215.079075 215.087681 0 118.614309-96.486283 215.117805-215.079075 215.117806z" fill="#6E6E96" opacity=".15" p-id="12435"></path><path d="M630.670253 580.479828c-16.727273-16.727273 9.329747-27.399677 31.995696-50.074234 22.670253-22.661646 33.346961-48.722969 50.082841-31.987089 16.740183 16.744486 11.924691 48.684239-10.736956 71.328671-22.67886 22.657343-54.614309 27.464228-71.341581 10.732652z" fill="#FFFFFF" opacity=".6" p-id="12436"></path><path d="M561.480366 847.668639c-229.065089 0-415.419042-186.358257-415.419043-415.423346 0-229.065089 186.358257-415.419042 415.419043-415.419042s415.419042 186.353954 415.419042 415.419042-186.358257 415.423346-415.419042 415.423346z m0-796.415277c-210.078537 0-380.991931 170.913394-380.991931 380.991931 0 210.08284 170.913394 380.996235 380.991931 380.996235s380.991931-170.913394 380.991931-380.996235c0-210.078537-170.913394-380.991931-380.991931-380.991931z" fill="#6E6E96" p-id="12437"></path><path d="M541.14255 411.490048m-25.019903 0a25.019903 25.019903 0 1 0 50.039806 0 25.019903 25.019903 0 1 0-50.039806 0Z" fill="#FFFFFF" opacity=".6" p-id="12438"></path><path d="M605.960194 455.526627a15.840775 15.840775 0 0 1-15.857989 15.849382 15.857988 15.857988 0 1 1 0-31.715977 15.845078 15.845078 0 0 1 15.857989 15.866595z" fill="#FFFFFF" opacity=".31" p-id="12439"></path><path d="M425.093061 858.384077c10.302313-15.160839 33.772996-27.533082 52.105433-27.533082h184.563744c18.358257 0 41.7773 12.372243 52.109736 27.533082l12.720818 18.612158c10.319527 15.182356 18.762776 39.427649 18.762776 53.904249 0 14.506724-15.005917 26.341044-33.342658 26.341044H426.943518c-18.32383 0-33.334051-11.851533-33.334051-26.341044 0-14.4766 8.451856-38.721893 18.771383-53.904249l12.712211-18.612158z" fill="#CCCCDE" p-id="12440"></path><path d="M712.01291 974.455083H426.943518c-27.87305 0-50.547606-19.537386-50.547606-43.554599 0-18.009683 9.351264-45.340506 21.749327-63.582571l12.729425-18.642281c13.559978-19.963421 42.08284-35.042496 66.32383-35.042496h184.563744c24.197956 0 52.716514 15.070468 66.33674 35.055406l12.707907 18.594944c12.41958 18.267886 21.766541 45.603012 21.766542 63.616998-0.004303 24.017214-22.683163 43.554599-50.560517 43.554599z m-234.814416-126.394836c-12.712211 0-30.760624 9.532006-37.869823 19.993545l-12.729424 18.646585c-9.019903 13.267348-15.776224 34.289403-15.776224 44.200107 0 3.636364 6.429263 9.127488 16.120495 9.127488h285.069392c9.695535 0 16.129102-5.491124 16.129102-9.127488 0-9.915008-6.747714-30.937063-15.784831-44.225928l-12.6993-18.57773c-7.152232-10.491662-25.209252-20.032275-37.899947-20.032275h-184.55944z" fill="#6E6E96" p-id="12441"></path><path d="M323.903174 1006.786444v-37.938676c0-20.87574 25.247983-37.94298 56.098978-37.94298h378.668101c30.868209 0 56.103281 17.075847 56.103281 37.94298v37.938676" fill="#CCCCDE" p-id="12442"></path><path d="M518.99731 850.887574v84.329209h-73.433028s-1.084454-67.442711 15.797741-84.329209h57.635287z" fill="#FFFFFF" opacity=".56" p-id="12443"></path><path d="M622.330285 830.846692v100.053792h123.029586c-0.008607 0-11.292093-100.053792-123.029586-100.053792z" fill="#6E6E96" opacity=".15" p-id="12444"></path><path d="M386.741259 937.648198H518.988704v69.138246H386.741259z" fill="#FFFFFF" opacity=".66" p-id="12445"></path><path d="M823.165143 975.332975l-18.870361 31.453469h-146.84454v-75.88596h106.960732l26.05702 13.809575z" fill="#6E6E96" opacity=".15" p-id="12446"></path><path d="M814.773534 1024H323.903174a17.213556 17.213556 0 0 1-17.213556-17.213556v-37.938676c0-30.93276 32.202259-55.156536 73.316837-55.156536h378.663798c41.114578 0 73.316837 24.22808 73.316837 55.156536v37.938676a17.213556 17.213556 0 0 1-17.213556 17.213556z m-473.656805-34.427111h456.443249v-20.725121c0-9.587951-16.985476-20.729424-38.889725-20.729425H380.006455c-21.899946 0-38.889726 11.145777-38.889726 20.729425v20.725121z" fill="#6E6E96" p-id="12447"></path></svg>