<?xml version="1.0" standalone="no"?><!DOCTYPE svg PUBLIC "-//W3C//DTD SVG 1.1//EN" "http://www.w3.org/Graphics/SVG/1.1/DTD/svg11.dtd"><svg t="1748170093062" class="icon" viewBox="0 0 1024 1024" version="1.1" xmlns="http://www.w3.org/2000/svg" p-id="8177" xmlns:xlink="http://www.w3.org/1999/xlink" width="256" height="256"><path d="M897.194667 800.824889H130.275556c-35.271111 0-64-28.728889-64-64V162.076444c0-35.271111 28.672-64 64-64H897.137778c35.271111 0 64 28.728889 64 64v574.748445c0 35.271111-28.672 64-64 64z m-766.862223-64h766.862223l0.113777-0.113778V162.133333l-0.113777-0.113777H130.332444l-0.113777 0.113777 0.056889 574.577778c-0.056889 0-0.056889 0 0 0z m-33.223111 191.886222a31.971556 31.971556 0 1 1 0-64l831.488-0.682667a31.971556 31.971556 0 1 1 0 63.943112l-831.488 0.739555c0.113778 0 0 0 0 0z m289.109334-305.607111h-0.113778c-27.477333-0.113778-41.813333-27.818667-48.810667-41.187556-8.078222-15.644444-16.384-35.896889-24.462222-55.523555-6.428444-15.587556-13.084444-31.687111-19.342222-44.714667a198.428444 198.428444 0 0 0-5.916445-11.605333 167.537778 167.537778 0 0 0-19.797333 19.399111c-11.776 13.255111-20.48 25.315556-20.593778 25.429333a31.914667 31.914667 0 1 1-51.996444-37.205333c0.512-0.682667 12.8-17.92 28.899555-35.214222 26.737778-28.785778 49.095111-42.154667 70.314667-42.382222h0.284444c13.084444 0 25.031111 6.200889 35.271112 18.375111 5.12 6.144 10.353778 14.108444 15.758222 24.519111 8.760889 16.782222 17.635556 38.286222 26.168889 58.993778 3.697778 8.988444 8.931556 21.617778 14.108444 33.336888 8.305778-17.237333 17.635556-38.229333 24.462222-53.475555 43.804444-98.417778 66.56-145.863111 104.220445-145.863111 34.417778 0 63.032889 34.190222 105.927111 90.510222 7.395556 9.671111 17.294222 22.755556 24.917333 31.630222 11.093333-9.841778 32.995556-32.824889 72.192-85.504 32.597333-43.804444 60.472889-85.902222 60.814222-86.300444a31.914667 31.914667 0 1 1 53.248 35.271111c-1.251556 1.991111-32.654222 49.379556-69.176888 97.735111-21.674667 28.785778-40.789333 51.996444-56.490667 68.664889-26.794667 28.501333-45.283556 40.106667-63.886222 40.106667-17.92 0-31.288889-12.515556-43.235556-25.884445-8.874667-10.126222-18.773333-23.096889-29.411555-36.977778-11.889778-15.644444-24.177778-31.857778-35.84-44.942222a173.738667 173.738667 0 0 0-14.506667-14.791111c-3.811556 5.575111-9.102222 14.620444-16.327111 28.785778-10.979556 21.617778-22.698667 47.900444-34.019556 73.329778-11.491556 25.770667-22.300444 50.062222-31.971555 68.778666-5.802667 11.207111-10.695111 19.342222-15.36 25.6-3.754667 5.290667-15.473778 21.048889-35.328 21.048889z" fill="#ffffff" p-id="8178"></path></svg>